<?xml version="1.0" encoding="utf-8"?>
<!-- Generator: Adobe Illustrator 25.4.1, SVG Export Plug-In . SVG Version: 6.00 Build 0)  -->
<svg version="1.1" id="Layer_1" xmlns="http://www.w3.org/2000/svg" xmlns:xlink="http://www.w3.org/1999/xlink" x="0px" y="0px"
	 viewBox="0 0 166.9 81.2" style="enable-background:new 0 0 166.9 81.2;" xml:space="preserve">
<style type="text/css">
	.st0{fill:#6E6E70;}
	.st1{fill:#BDBFBF;}
	.st2{fill:#FFC70A;}
	.st3{fill:#2B459C;}
</style>
<g>
	<path class="st0" d="M151.5,52.1l-16.2,0.2c-1.1,11.4-15.9,8.9-16.1,1l-0.3-15.5c11.7-0.9,10.5-9.3,0.3-9.7v-9l-16.4,4.8l0.3,29.4
		C103.2,69,151.3,71.7,151.5,52.1 M100.2,52.1l0.2-28l-17.8-4.8v17.4c-18.4-3.2-38.4,4.7-35.7,16C51.5,71.9,97.9,69.6,100.2,52.1
		 M81.8,50.7c0,4.8-4.1,8.7-9.1,8.7c-5,0-9.1-3.9-9.1-8.7s4.1-8.7,9.1-8.7C77.7,41.9,81.8,45.8,81.8,50.7 M57.6,21
		c-14.2,1.6-13.3,5.1,0,7.6C47.2,25.2,47.5,23.1,57.6,21 M57,17.2C57,17.2,57,17.2,57,17.2C57,17.2,57,17.2,57,17.2
		c-10.6,2.5-11.5,0.6-4.1-6.4c0,0,0,0,0,0c0,0,0,0,0,0C41.7,19.5,44.5,21.9,57,17.2 M50.7,8.3C50.7,8.3,50.7,8.3,50.7,8.3
		C50.7,8.3,50.7,8.3,50.7,8.3c-7.6,7.6-9.4,6.5-7-3.3c0,0,0,0,0,0c0,0,0,0,0,0C39,18.2,42.6,18.8,50.7,8.3 M40.4,3.5
		C40.4,3.5,40.4,3.5,40.4,3.5C40.4,3.5,40.4,3.5,40.4,3.5c-2.8,10.3-5,10.1-7.7,0.4c0,0,0,0,0,0c0,0,0,0,0,0
		C35.1,17.7,38.6,16.6,40.4,3.5 M29.3,4.7C29.3,4.7,29.3,4.7,29.3,4.7C29.3,4.7,29.3,4.7,29.3,4.7c2.3,10.4,0.4,11.2-6.7,3.9
		c0,0,0,0,0,0c0,0,0,0,0,0C31.3,19.7,33.9,17,29.3,4.7 M20,11.1C20,11.1,20,11.1,20,11.1C20,11.1,20,11.1,20,11.1
		c7.7,7.5,6.5,9.2-3.5,6.8c0,0,0,0,0,0c0,0,0,0,0,0C30,22.6,30.7,19.1,20,11.1 M15.7,20.7C15.7,20.7,15.7,20.7,15.7,20.7
		C15.7,20.7,15.7,20.7,15.7,20.7c10.4,3.1,10.2,5.2,0.2,7.6c0,0,0,0,0,0c0,0,0,0,0,0C30.1,26.3,29,22.8,15.7,20.7 M36.5,32.7
		c4.7,0,8.5-3.7,8.5-8.3S41.2,16,36.5,16c-4.7,0-8.5,3.7-8.5,8.3S31.8,32.7,36.5,32.7 M45.8,36.2H27.5v30.4h18.3V36.2z"/>
	<path class="st1" d="M151.2,51.8L135,52c-1.1,11.4-15.9,8.9-16.1,1l-0.3-15.5c11.7-0.9,10.5-9.3,0.3-9.7v-9l-16.4,4.8l0.3,29.4
		C103,68.7,151,71.4,151.2,51.8 M99.9,51.8l0.2-28L82.3,19v17.4c-18.4-3.2-38.4,4.7-35.7,16C51.2,71.6,97.6,69.3,99.9,51.8
		 M81.5,50.4c0,4.8-4.1,8.7-9.1,8.7c-5,0-9.1-3.9-9.1-8.7c0-4.8,4.1-8.7,9.1-8.7C77.4,41.6,81.5,45.5,81.5,50.4 M57.3,20.7
		c-14.2,1.6-13.3,5.1,0,7.6C46.9,24.9,47.2,22.8,57.3,20.7 M56.7,16.9C56.7,16.9,56.7,16.9,56.7,16.9C56.7,16.9,56.7,16.9,56.7,16.9
		c-10.6,2.5-11.5,0.6-4.1-6.4c0,0,0,0,0,0c0,0,0,0,0,0C41.4,19.2,44.2,21.6,56.7,16.9 M50.4,8C50.4,8,50.4,8,50.4,8
		C50.4,8,50.4,8,50.4,8c-7.6,7.6-9.4,6.5-7-3.3c0,0,0,0,0,0c0,0,0,0,0,0C38.7,17.9,42.3,18.5,50.4,8 M40.1,3.2
		C40.1,3.2,40.1,3.2,40.1,3.2C40.1,3.2,40.1,3.2,40.1,3.2c-2.8,10.3-5,10.1-7.7,0.4c0,0,0,0,0,0c0,0,0,0,0,0
		C34.9,17.4,38.4,16.3,40.1,3.2 M29,4.4C29,4.4,29,4.4,29,4.4C29,4.4,29,4.4,29,4.4c2.3,10.4,0.4,11.2-6.7,3.9c0,0,0,0,0,0
		c0,0,0,0,0,0C31,19.4,33.6,16.7,29,4.4 M19.7,10.8C19.7,10.8,19.7,10.8,19.7,10.8C19.7,10.8,19.7,10.8,19.7,10.8
		c7.7,7.5,6.5,9.2-3.5,6.8c0,0,0,0,0,0c0,0,0,0,0,0C29.7,22.4,30.4,18.8,19.7,10.8 M15.4,20.4C15.4,20.4,15.4,20.4,15.4,20.4
		C15.4,20.4,15.4,20.4,15.4,20.4c10.4,3.1,10.2,5.2,0.2,7.6c0,0,0,0,0,0c0,0,0,0,0,0C29.8,26,28.7,22.5,15.4,20.4 M36.2,32.4
		c4.7,0,8.5-3.7,8.5-8.3c0-4.6-3.8-8.3-8.5-8.3c-4.7,0-8.5,3.7-8.5,8.3C27.7,28.6,31.5,32.4,36.2,32.4 M45.5,35.9H27.2v30.4h18.3
		V35.9z"/>
	<path class="st0" d="M64.5,20.7c-7.4,5.7-5.6,7.3,2.7,4.2C60.2,26.5,59.6,25.3,64.5,20.7 M63,19c-5,5-6.2,4.2-4.6-2.2
		C55.2,25.5,57.7,26,63,19 M56.2,15.9c-1.9,6.7-3.3,6.6-5.1,0.3C52.7,25.2,55,24.5,56.2,15.9 M48.8,16.7c1.5,6.8,0.2,7.4-4.4,2.5
		C50.2,26.5,51.8,24.8,48.8,16.7 M42.7,20.9c5.1,4.9,4.3,6.1-2.3,4.4C49.3,28.5,49.8,26.1,42.7,20.9 M40,32.2c9.4-1.3,8.7-3.6-0.1-5
		C46.7,29.2,46.6,30.6,40,32.2 M47.9,29.6c0,3,2.5,5.5,5.7,5.5c3.1,0,5.6-2.5,5.6-5.5c0-3-2.5-5.5-5.6-5.5
		C50.5,24.1,47.9,26.5,47.9,29.6 M67.5,32.3c-6.8-2.2-6.6-3.6,0-5C58.1,28.4,58.7,30.7,67.5,32.3"/>
	<path class="st0" d="M127.6,47.7l-10.5,0.1c-0.7,7.4-10.3,5.8-10.4,0.7l-0.2-10.1c7.6-0.6,6.8-6.1,0.2-6.4v-5.8l-10.7,3.1l0.2,19.2
		C96.2,58.7,127.5,60.5,127.6,47.7 M94.8,47.7l0.1-18.3l-11.6-3.1v11.3c-12-2.1-25,3.1-23.2,10.4C63.1,60.6,93.3,59.1,94.8,47.7
		 M83.3,47c0,3.1-2.6,5.6-5.8,5.6c-3.2,0-5.8-2.5-5.8-5.6c0-3.1,2.6-5.6,5.8-5.6C80.6,41.3,83.3,43.8,83.3,47 M47.9,56.7h11.7V37.4
		H47.9V56.7z"/>
	<path class="st2" d="M64.2,20.4c-7.4,5.8-5.6,7.4,2.7,4.3C59.9,26.3,59.3,25.1,64.2,20.4 M62.7,18.7c-5,5.1-6.2,4.3-4.6-2.2
		C55,25.3,57.4,25.8,62.7,18.7 M55.9,15.6c-1.9,6.8-3.3,6.7-5.1,0.3C52.4,25,54.7,24.2,55.9,15.6 M48.5,16.3
		c1.6,6.9,0.2,7.5-4.4,2.6C49.8,26.3,51.5,24.6,48.5,16.3 M42.3,20.6c5.1,5,4.3,6.1-2.3,4.5C49,28.3,49.4,25.9,42.3,20.6 M39.6,32
		c9.4-1.3,8.7-3.6-0.1-5C46.4,29,46.2,30.4,39.6,32 M47.6,29.4c0,3.1,2.5,5.5,5.7,5.5c3.1,0,5.7-2.5,5.7-5.5c0-3.1-2.5-5.5-5.7-5.5
		C50.2,23.8,47.6,26.3,47.6,29.4 M67.2,32.2c-6.8-2.2-6.7-3.6,0-5C57.8,28.2,58.5,30.5,67.2,32.2"/>
	<path class="st2" d="M64.2,20.4c-7.4,5.7-5.6,7.3,2.7,4.2C59.9,26.2,59.3,25,64.2,20.4 M62.7,18.8c-5,5-6.2,4.2-4.6-2.2
		C54.9,25.2,57.4,25.7,62.7,18.8 M55.9,15.6c-1.9,6.7-3.3,6.6-5.1,0.3C52.4,25,54.7,24.2,55.9,15.6 M48.5,16.4
		c1.5,6.8,0.2,7.4-4.4,2.5C49.9,26.2,51.5,24.5,48.5,16.4 M42.4,20.6c5.1,4.9,4.3,6.1-2.3,4.4C49,28.2,49.5,25.8,42.4,20.6
		 M39.7,31.9c9.4-1.3,8.7-3.6-0.1-5C46.4,28.9,46.3,30.3,39.7,31.9 M47.6,29.3c0,3,2.5,5.5,5.7,5.5c3.1,0,5.6-2.5,5.6-5.5
		s-2.5-5.5-5.6-5.5C50.2,23.8,47.6,26.2,47.6,29.3 M67.2,32c-6.8-2.2-6.6-3.6,0-5C57.8,28.1,58.4,30.4,67.2,32"/>
	<path class="st3" d="M127.3,47.4l-10.5,0.1c-0.7,7.4-10.3,5.8-10.4,0.7L106.1,38c7.6-0.6,6.8-6.1,0.2-6.4v-5.8L95.6,29l0.2,19.2
		C95.9,58.4,127.2,60.2,127.3,47.4 M94.5,47.4l0.1-18.3L83,26v11.3c-12-2.1-25,3.1-23.2,10.4C62.8,60.3,93,58.8,94.5,47.4 M83,46.7
		c0,3.1-2.6,5.6-5.8,5.6c-3.2,0-5.8-2.5-5.8-5.6c0-3.1,2.6-5.6,5.8-5.6C80.3,41,83,43.5,83,46.7 M47.6,56.4h11.7V37.1H47.6V56.4z"/>
	<path class="st0" d="M148.2,72.6l-0.5,0.5c-0.2-0.2-0.5-0.3-0.7-0.3c-0.1,0-0.3,0-0.3,0.1c-0.1,0.1-0.1,0.2-0.1,0.3
		c0,0.1,0,0.2,0.1,0.3c0.1,0.1,0.2,0.2,0.5,0.3c0.3,0.2,0.6,0.4,0.7,0.5c0.1,0.2,0.2,0.4,0.2,0.6c0,0.4-0.1,0.6-0.4,0.8
		c-0.3,0.2-0.6,0.3-1,0.3c-0.6,0-1-0.2-1.4-0.7l0.6-0.4c0.2,0.3,0.5,0.4,0.8,0.4c0.2,0,0.3,0,0.4-0.1c0.1-0.1,0.1-0.2,0.1-0.3
		c0-0.1,0-0.2-0.1-0.3l-0.2-0.1c-0.1-0.1-0.2-0.1-0.4-0.2c-0.3-0.2-0.5-0.3-0.6-0.5c-0.1-0.2-0.2-0.3-0.2-0.6c0-0.3,0.1-0.6,0.4-0.8
		c0.3-0.2,0.6-0.3,1-0.3C147.4,72,147.8,72.2,148.2,72.6 M144.6,72.2l-0.3,2.2c0,0.2,0,0.3-0.1,0.5c0,0.1-0.1,0.3-0.1,0.3
		c-0.1,0.2-0.2,0.3-0.4,0.5c-0.3,0.2-0.7,0.3-1.2,0.3c-0.5,0-0.8-0.1-1.1-0.4c-0.3-0.2-0.4-0.6-0.4-1l0-0.2l0-0.3l0.2-2h0.9
		l-0.3,2.1l0,0.2l0,0.2c0,0.4,0.2,0.6,0.7,0.6c0.3,0,0.4-0.1,0.6-0.2c0.1-0.1,0.2-0.4,0.2-0.7l0.3-2.2H144.6z M138.9,72.2l0,0.3
		c0.3-0.3,0.6-0.4,0.9-0.4c0.3,0,0.5,0.1,0.7,0.3l-0.6,0.7c-0.2-0.1-0.3-0.2-0.5-0.2c-0.1,0-0.2,0-0.3,0.1c-0.1,0-0.2,0.1-0.2,0.2
		c-0.1,0.1-0.1,0.2-0.2,0.4c0,0.1-0.1,0.3-0.1,0.5l-0.2,1.9h-0.9l0.5-3.7H138.9z M136.4,73l-0.4,2.9h-0.9l0.4-2.9H135l0.1-0.8h0.5
		l0.2-1.7h0.9l-0.2,1.7h0.8l-0.1,0.8H136.4z M128.6,73l-0.4,2.9h-0.9l0.4-2.9h-0.5l0.1-0.8h0.5l0.2-1.7h0.9l-0.2,1.7h0.8l-0.1,0.8
		H128.6z M124,72.2l0,0.3c0.4-0.3,0.7-0.4,1.1-0.4c0.4,0,0.7,0.1,0.9,0.3c0.2,0.2,0.3,0.5,0.3,0.8c0,0.2,0,0.4,0,0.7l-0.3,2h-0.9
		l0.3-2.2l0-0.2l0-0.2c0-0.3-0.2-0.5-0.6-0.5c-0.2,0-0.4,0.1-0.6,0.2c-0.1,0.1-0.2,0.2-0.3,0.4c0,0.1-0.1,0.2-0.1,0.3l-0.1,0.4
		l-0.2,1.8h-0.9l0.5-3.7H124z M120.9,73.6c-0.1-0.6-0.4-0.9-1-0.9c-0.5,0-0.9,0.3-1,0.9H120.9z M118.9,74.3c0,0.3,0.1,0.5,0.3,0.7
		c0.2,0.2,0.4,0.3,0.7,0.3c0.4,0,0.7-0.2,1-0.5l0.7,0.4c-0.2,0.3-0.5,0.5-0.7,0.6c-0.2,0.1-0.6,0.2-0.9,0.2c-0.6,0-1.1-0.2-1.4-0.5
		c-0.3-0.3-0.5-0.8-0.5-1.4c0-0.6,0.2-1.1,0.6-1.5c0.4-0.4,0.9-0.6,1.4-0.6c0.6,0,1,0.2,1.3,0.5c0.3,0.4,0.5,0.8,0.5,1.4l0,0.3
		H118.9z M112.7,72.2l0,0.3c0.3-0.3,0.6-0.4,1-0.4c0.2,0,0.4,0,0.6,0.1c0.1,0.1,0.2,0.2,0.3,0.5c0.4-0.4,0.8-0.6,1.2-0.6
		c0.8,0,1.1,0.3,1.1,1l0,0.3l0,0.5l-0.3,2h-0.9l0.3-2.1c0-0.2,0-0.3,0-0.4c0-0.3-0.2-0.5-0.5-0.5c-0.1,0-0.2,0-0.3,0.1
		c-0.1,0-0.2,0.1-0.3,0.2c-0.1,0.1-0.1,0.2-0.2,0.3c0,0.1-0.1,0.3-0.1,0.5l-0.3,2.1h-0.9l0.3-2.2c0-0.2,0-0.3,0-0.4
		c0-0.3-0.2-0.5-0.5-0.5c-0.5,0-0.8,0.3-0.9,1l-0.3,2.1h-0.9l0.5-3.7H112.7z M109.6,73.9c0-0.3-0.1-0.6-0.3-0.8
		c-0.2-0.2-0.4-0.3-0.7-0.3c-0.4,0-0.7,0.1-0.9,0.4c-0.2,0.3-0.4,0.6-0.4,1c0,0.3,0.1,0.6,0.3,0.8c0.2,0.2,0.5,0.3,0.8,0.3
		c0.3,0,0.6-0.1,0.9-0.4C109.5,74.6,109.6,74.3,109.6,73.9 M107.5,72.2l0,0.4c0.4-0.3,0.8-0.5,1.2-0.5c0.5,0,0.9,0.2,1.3,0.5
		c0.3,0.3,0.5,0.8,0.5,1.3c0,0.6-0.2,1.1-0.6,1.5c-0.4,0.4-0.9,0.6-1.4,0.6c-0.3,0-0.5,0-0.7-0.1c-0.2-0.1-0.4-0.3-0.6-0.5l-0.3,2.7
		h-0.9l0.7-5.8H107.5z M104.4,73.9c0-0.4-0.1-0.6-0.3-0.8c-0.2-0.2-0.5-0.3-0.8-0.3c-0.4,0-0.7,0.1-0.9,0.4
		c-0.2,0.2-0.4,0.5-0.4,0.9c0,0.4,0.1,0.7,0.3,0.9c0.2,0.2,0.5,0.3,0.9,0.3c0.4,0,0.6-0.1,0.9-0.4C104.3,74.6,104.4,74.3,104.4,73.9
		 M105.3,74c0,0.6-0.2,1-0.6,1.4c-0.4,0.4-0.9,0.6-1.5,0.6c-0.6,0-1.1-0.2-1.5-0.5c-0.4-0.4-0.6-0.8-0.6-1.4c0-0.6,0.2-1.1,0.6-1.4
		c0.4-0.4,0.9-0.6,1.5-0.6c0.6,0,1.1,0.2,1.5,0.5C105.1,72.9,105.3,73.4,105.3,74 M100.6,69.2l-0.8,6.7h-0.9l0.8-6.7H100.6z
		 M97.2,73.6c-0.1-0.6-0.4-0.9-1-0.9c-0.5,0-0.9,0.3-1,0.9H97.2z M95.1,74.3c0,0.3,0.1,0.5,0.3,0.7c0.2,0.2,0.4,0.3,0.7,0.3
		c0.4,0,0.7-0.2,1-0.5l0.7,0.4c-0.2,0.3-0.5,0.5-0.7,0.6c-0.2,0.1-0.6,0.2-0.9,0.2c-0.6,0-1.1-0.2-1.4-0.5c-0.3-0.3-0.5-0.8-0.5-1.4
		c0-0.6,0.2-1.1,0.6-1.5c0.4-0.4,0.9-0.6,1.4-0.6c0.6,0,1,0.2,1.3,0.5c0.3,0.4,0.5,0.8,0.5,1.4l0,0.3H95.1z M94,72.2l-2.6,4.2
		L90,72.2H91l0.7,2.4l1.4-2.4H94z M88.5,73.6c-0.1-0.6-0.4-0.9-1-0.9c-0.5,0-0.9,0.3-1,0.9H88.5z M86.5,74.3c0,0.3,0.1,0.5,0.3,0.7
		c0.2,0.2,0.4,0.3,0.7,0.3c0.4,0,0.7-0.2,1-0.5l0.7,0.4c-0.2,0.3-0.5,0.5-0.7,0.6c-0.2,0.1-0.6,0.2-0.9,0.2c-0.6,0-1.1-0.2-1.4-0.5
		c-0.3-0.3-0.5-0.8-0.5-1.4c0-0.6,0.2-1.1,0.6-1.5c0.4-0.4,0.9-0.6,1.4-0.6c0.6,0,1,0.2,1.3,0.5c0.3,0.4,0.5,0.8,0.5,1.4l0,0.3H86.5
		z M83.6,73.8c0-0.3-0.1-0.6-0.3-0.8c-0.2-0.2-0.5-0.3-0.8-0.3c-0.4,0-0.6,0.1-0.9,0.4c-0.2,0.3-0.3,0.6-0.3,1
		c0,0.3,0.1,0.6,0.3,0.8c0.2,0.2,0.5,0.3,0.8,0.3c0.3,0,0.6-0.1,0.9-0.4C83.4,74.6,83.6,74.2,83.6,73.8 M85,69.2l-0.8,6.7h-0.9
		l0-0.4c-0.2,0.2-0.4,0.3-0.6,0.4c-0.2,0.1-0.4,0.1-0.6,0.1c-0.5,0-1-0.2-1.3-0.5c-0.3-0.3-0.5-0.8-0.5-1.3c0-0.6,0.2-1.1,0.6-1.5
		c0.4-0.4,0.8-0.6,1.4-0.6c0.3,0,0.5,0,0.7,0.1c0.2,0.1,0.4,0.3,0.6,0.5l0.4-3.5H85z M73.9,73l-0.4,2.9h-0.9L73,73h-0.5l0.1-0.8h0.5
		l0.2-1.7h0.9L74,72.2h0.8L74.8,73H73.9z M69.3,72.2l0,0.3c0.4-0.3,0.7-0.4,1.1-0.4c0.4,0,0.7,0.1,0.9,0.3c0.2,0.2,0.3,0.5,0.3,0.8
		c0,0.2,0,0.4,0,0.7l-0.3,2h-0.9l0.3-2.2l0-0.2l0-0.2c0-0.3-0.2-0.5-0.6-0.5c-0.2,0-0.4,0.1-0.6,0.2c-0.1,0.1-0.2,0.2-0.3,0.4
		c0,0.1-0.1,0.2-0.1,0.3l-0.1,0.4l-0.2,1.8H68l0.5-3.7H69.3z M66.2,73.6c-0.1-0.6-0.4-0.9-1-0.9c-0.5,0-0.9,0.3-1,0.9H66.2z
		 M64.2,74.3c0,0.3,0.1,0.5,0.3,0.7c0.2,0.2,0.4,0.3,0.7,0.3c0.4,0,0.7-0.2,1-0.5l0.7,0.4c-0.2,0.3-0.5,0.5-0.7,0.6
		c-0.2,0.1-0.6,0.2-0.9,0.2c-0.6,0-1.1-0.2-1.4-0.5c-0.4-0.3-0.5-0.8-0.5-1.4c0-0.6,0.2-1.1,0.6-1.5c0.4-0.4,0.9-0.6,1.4-0.6
		c0.6,0,1,0.2,1.3,0.5c0.3,0.4,0.5,0.8,0.5,1.4l0,0.3H64.2z M61.3,73.8c0-0.3-0.1-0.6-0.3-0.8c-0.2-0.2-0.5-0.3-0.8-0.3
		c-0.4,0-0.6,0.1-0.9,0.4c-0.2,0.3-0.3,0.6-0.3,1c0,0.3,0.1,0.6,0.3,0.8c0.2,0.2,0.5,0.3,0.8,0.3c0.3,0,0.6-0.1,0.9-0.4
		C61.1,74.6,61.3,74.2,61.3,73.8 M62.7,69.2l-0.8,6.7H61l0-0.4c-0.2,0.2-0.4,0.3-0.6,0.4c-0.2,0.1-0.4,0.1-0.6,0.1
		c-0.5,0-1-0.2-1.3-0.5c-0.3-0.3-0.5-0.8-0.5-1.3c0-0.6,0.2-1.1,0.6-1.5c0.4-0.4,0.8-0.6,1.4-0.6c0.3,0,0.5,0,0.7,0.1
		c0.2,0.1,0.4,0.3,0.6,0.5l0.4-3.5H62.7z M54.8,72.2l0,0.3c0.4-0.3,0.7-0.4,1.1-0.4c0.4,0,0.7,0.1,0.9,0.3c0.2,0.2,0.3,0.5,0.3,0.8
		c0,0.2,0,0.4,0,0.7l-0.3,2h-0.9l0.3-2.2l0-0.2l0-0.2c0-0.3-0.2-0.5-0.6-0.5c-0.2,0-0.4,0.1-0.6,0.2c-0.1,0.1-0.2,0.2-0.3,0.4
		c0,0.1-0.1,0.2-0.1,0.3l-0.1,0.4l-0.2,1.8h-0.9l0.5-3.7H54.8z M51.7,73.6c-0.1-0.6-0.4-0.9-1-0.9c-0.5,0-0.9,0.3-1,0.9H51.7z
		 M49.6,74.3c0,0.3,0.1,0.5,0.3,0.7c0.2,0.2,0.4,0.3,0.7,0.3c0.4,0,0.7-0.2,1-0.5l0.7,0.4c-0.2,0.3-0.5,0.5-0.7,0.6
		C51.4,75.9,51,76,50.7,76c-0.6,0-1.1-0.2-1.4-0.5c-0.3-0.3-0.5-0.8-0.5-1.4c0-0.6,0.2-1.1,0.6-1.5c0.4-0.4,0.9-0.6,1.4-0.6
		c0.6,0,1,0.2,1.3,0.5c0.3,0.4,0.5,0.8,0.5,1.4l0,0.3H49.6z M47,73.9c0-0.3-0.1-0.6-0.3-0.8c-0.2-0.2-0.4-0.3-0.7-0.3
		c-0.4,0-0.7,0.1-0.9,0.4c-0.2,0.3-0.4,0.6-0.4,1c0,0.3,0.1,0.6,0.3,0.8c0.2,0.2,0.5,0.3,0.8,0.3c0.3,0,0.6-0.1,0.9-0.4
		C46.9,74.6,47,74.3,47,73.9 M45,72.2l0,0.4c0.4-0.3,0.8-0.5,1.2-0.5c0.5,0,0.9,0.2,1.3,0.5c0.3,0.3,0.5,0.8,0.5,1.3
		c0,0.6-0.2,1.1-0.6,1.5c-0.4,0.4-0.9,0.6-1.4,0.6c-0.3,0-0.5,0-0.7-0.1c-0.2-0.1-0.4-0.3-0.6-0.5L44.2,78h-0.9l0.7-5.8H45z
		 M41.8,73.6c-0.1-0.6-0.4-0.9-1-0.9c-0.5,0-0.9,0.3-1,0.9H41.8z M39.8,74.3c0,0.3,0.1,0.5,0.3,0.7c0.2,0.2,0.4,0.3,0.7,0.3
		c0.4,0,0.7-0.2,1-0.5l0.7,0.4c-0.2,0.3-0.5,0.5-0.7,0.6c-0.2,0.1-0.6,0.2-0.9,0.2c-0.6,0-1.1-0.2-1.4-0.5c-0.3-0.3-0.5-0.8-0.5-1.4
		c0-0.6,0.2-1.1,0.6-1.5c0.4-0.4,0.9-0.6,1.4-0.6c0.6,0,1,0.2,1.3,0.5c0.3,0.4,0.5,0.8,0.5,1.4l0,0.3H39.8z M36.9,73.8
		c0-0.3-0.1-0.6-0.3-0.8c-0.2-0.2-0.5-0.3-0.8-0.3c-0.3,0-0.6,0.1-0.9,0.4c-0.2,0.3-0.3,0.6-0.3,1c0,0.3,0.1,0.6,0.3,0.8
		c0.2,0.2,0.5,0.3,0.8,0.3c0.3,0,0.6-0.1,0.9-0.4C36.8,74.6,36.9,74.2,36.9,73.8 M38.3,69.2l-0.8,6.7h-0.9l0-0.4
		c-0.2,0.2-0.4,0.3-0.6,0.4c-0.2,0.1-0.4,0.1-0.6,0.1c-0.5,0-1-0.2-1.3-0.5c-0.3-0.3-0.5-0.8-0.5-1.3c0-0.6,0.2-1.1,0.6-1.5
		c0.4-0.4,0.8-0.6,1.4-0.6c0.3,0,0.5,0,0.7,0.1c0.2,0.1,0.4,0.3,0.6,0.5l0.4-3.5H38.3z M30.4,72.2l0,0.3c0.4-0.3,0.7-0.4,1.1-0.4
		c0.4,0,0.7,0.1,0.9,0.3c0.2,0.2,0.3,0.5,0.3,0.8c0,0.2,0,0.4,0,0.7l-0.3,2h-0.9l0.3-2.2l0-0.2l0-0.2c0-0.3-0.2-0.5-0.6-0.5
		c-0.2,0-0.4,0.1-0.6,0.2c-0.1,0.1-0.2,0.2-0.3,0.4c0,0.1-0.1,0.2-0.1,0.3l-0.1,0.4l-0.2,1.8h-0.9l0.5-3.7H30.4z M28.2,72.2
		l-0.5,3.7h-0.9l0.5-3.7H28.2z M28.5,70.4c0,0.1,0,0.2-0.1,0.3c-0.1,0.1-0.2,0.1-0.3,0.1c-0.1,0-0.2,0-0.3-0.1
		c-0.1-0.1-0.1-0.2-0.1-0.3c0-0.1,0-0.2,0.1-0.3c0.1-0.1,0.2-0.1,0.3-0.1c0.1,0,0.2,0,0.3,0.1C28.4,70.1,28.5,70.3,28.5,70.4
		 M150.3,73l-0.4,2.9H149l0.4-2.9h-0.5l0.1-0.8h0.5l0.2-1.7h0.9l-0.2,1.7h0.8l-0.1,0.8H150.3z"/>
	<path class="st0" d="M125.3,60.8l-0.3,0.3c-0.2-0.1-0.3-0.2-0.4-0.2c-0.1,0-0.2,0-0.2,0.1c-0.1,0-0.1,0.1-0.1,0.2
		c0,0.1,0,0.1,0.1,0.2c0,0,0.2,0.1,0.3,0.2c0.2,0.1,0.4,0.2,0.4,0.3c0.1,0.1,0.1,0.2,0.1,0.4c0,0.2-0.1,0.4-0.2,0.5
		c-0.2,0.1-0.4,0.2-0.6,0.2c-0.4,0-0.7-0.2-0.9-0.5l0.4-0.3c0.2,0.2,0.3,0.3,0.5,0.3c0.1,0,0.2,0,0.2-0.1c0.1-0.1,0.1-0.1,0.1-0.2
		c0-0.1,0-0.1-0.1-0.2l-0.1-0.1l-0.2-0.1c-0.2-0.1-0.3-0.2-0.4-0.3c-0.1-0.1-0.1-0.2-0.1-0.4c0-0.2,0.1-0.4,0.2-0.5
		c0.2-0.1,0.4-0.2,0.6-0.2C124.8,60.5,125.1,60.6,125.3,60.8 M123,60.5l-0.2,1.4l-0.1,0.3l-0.1,0.2c0,0.1-0.1,0.2-0.2,0.3
		c-0.2,0.1-0.4,0.2-0.8,0.2c-0.3,0-0.5-0.1-0.7-0.2c-0.2-0.2-0.3-0.4-0.3-0.6l0-0.1l0-0.2l0.2-1.3h0.6l-0.2,1.3l0,0.2l0,0.1
		c0,0.2,0.1,0.4,0.5,0.4c0.2,0,0.3,0,0.4-0.1c0.1-0.1,0.1-0.2,0.2-0.4l0.2-1.4H123z M119.4,60.5l0,0.2c0.2-0.2,0.4-0.3,0.6-0.3
		c0.2,0,0.3,0.1,0.5,0.2l-0.4,0.5c-0.1-0.1-0.2-0.1-0.3-0.1c-0.1,0-0.1,0-0.2,0c-0.1,0-0.1,0.1-0.1,0.1c0,0.1-0.1,0.1-0.1,0.2
		c0,0.1,0,0.2-0.1,0.3l-0.2,1.2h-0.6l0.3-2.4H119.4z M117.8,61l-0.2,1.9H117l0.2-1.9h-0.3l0.1-0.5h0.3l0.1-1.1h0.6l-0.1,1.1h0.5
		l-0.1,0.5H117.8z M112.9,61l-0.2,1.9h-0.6l0.2-1.9H112l0.1-0.5h0.3l0.1-1.1h0.6l-0.1,1.1h0.5l-0.1,0.5H112.9z M110,60.5l0,0.2
		c0.2-0.2,0.5-0.3,0.7-0.3c0.2,0,0.4,0.1,0.6,0.2c0.1,0.1,0.2,0.3,0.2,0.5c0,0.1,0,0.3,0,0.4l-0.2,1.3h-0.6l0.2-1.4l0-0.1l0-0.1
		c0-0.2-0.1-0.3-0.4-0.3c-0.1,0-0.3,0-0.4,0.1c-0.1,0.1-0.1,0.2-0.2,0.3c0,0,0,0.1-0.1,0.2l0,0.3l-0.1,1.1h-0.6l0.3-2.4H110z
		 M108,61.5c-0.1-0.4-0.3-0.5-0.6-0.5c-0.3,0-0.6,0.2-0.7,0.5H108z M106.7,61.9c0,0.2,0.1,0.3,0.2,0.4c0.1,0.1,0.3,0.2,0.5,0.2
		c0.3,0,0.5-0.1,0.6-0.3l0.4,0.2c-0.1,0.2-0.3,0.3-0.5,0.4c-0.2,0.1-0.4,0.1-0.6,0.1c-0.4,0-0.7-0.1-0.9-0.3
		c-0.2-0.2-0.3-0.5-0.3-0.9c0-0.4,0.1-0.7,0.4-1c0.2-0.3,0.6-0.4,0.9-0.4c0.4,0,0.6,0.1,0.9,0.3c0.2,0.2,0.3,0.5,0.3,0.9l0,0.2
		H106.7z M102.8,60.5l0,0.2c0.2-0.2,0.4-0.3,0.7-0.3c0.2,0,0.3,0,0.4,0.1c0.1,0.1,0.2,0.2,0.2,0.3c0.2-0.3,0.5-0.4,0.8-0.4
		c0.5,0,0.7,0.2,0.7,0.6l0,0.2l0,0.3l-0.2,1.3h-0.6l0.2-1.4l0-0.3c0-0.2-0.1-0.3-0.3-0.3c-0.1,0-0.2,0-0.2,0c-0.1,0-0.1,0.1-0.2,0.1
		c0,0.1-0.1,0.1-0.1,0.2c0,0.1,0,0.2-0.1,0.3l-0.2,1.3h-0.6l0.2-1.4l0-0.3c0-0.2-0.1-0.3-0.3-0.3c-0.3,0-0.5,0.2-0.6,0.6l-0.2,1.3
		h-0.6l0.3-2.4H102.8z M100.8,61.7c0-0.2-0.1-0.4-0.2-0.5c-0.1-0.1-0.3-0.2-0.5-0.2c-0.2,0-0.4,0.1-0.6,0.2
		c-0.2,0.2-0.2,0.4-0.2,0.6c0,0.2,0.1,0.4,0.2,0.5c0.1,0.1,0.3,0.2,0.5,0.2c0.2,0,0.4-0.1,0.5-0.2C100.7,62.1,100.8,61.9,100.8,61.7
		 M99.5,60.5l0,0.3c0.2-0.2,0.5-0.3,0.8-0.3c0.3,0,0.6,0.1,0.8,0.3c0.2,0.2,0.3,0.5,0.3,0.8c0,0.4-0.1,0.7-0.4,0.9
		c-0.2,0.3-0.5,0.4-0.9,0.4c-0.2,0-0.3,0-0.5-0.1c-0.1-0.1-0.3-0.2-0.4-0.3L99,64.3h-0.6l0.5-3.7H99.5z M97.5,61.7
		c0-0.2-0.1-0.4-0.2-0.5c-0.1-0.1-0.3-0.2-0.5-0.2c-0.2,0-0.4,0.1-0.6,0.2C96,61.3,96,61.5,96,61.7c0,0.2,0.1,0.4,0.2,0.6
		c0.1,0.1,0.3,0.2,0.5,0.2c0.2,0,0.4-0.1,0.6-0.2C97.4,62.1,97.5,61.9,97.5,61.7 M98.1,61.7c0,0.4-0.1,0.7-0.4,0.9
		c-0.3,0.2-0.6,0.4-1,0.4c-0.4,0-0.7-0.1-1-0.4c-0.3-0.2-0.4-0.5-0.4-0.9c0-0.4,0.1-0.7,0.4-0.9c0.3-0.2,0.6-0.4,1-0.4
		c0.4,0,0.7,0.1,0.9,0.3C97.9,61,98.1,61.3,98.1,61.7 M95.1,58.6l-0.5,4.3H94l0.5-4.3H95.1z M92.9,61.5c-0.1-0.4-0.3-0.5-0.6-0.5
		c-0.3,0-0.6,0.2-0.7,0.5H92.9z M91.6,61.9c0,0.2,0.1,0.3,0.2,0.4c0.1,0.1,0.3,0.2,0.5,0.2c0.3,0,0.5-0.1,0.6-0.3l0.4,0.2
		c-0.1,0.2-0.3,0.3-0.5,0.4c-0.2,0.1-0.4,0.1-0.6,0.1c-0.4,0-0.7-0.1-0.9-0.3c-0.2-0.2-0.3-0.5-0.3-0.9c0-0.4,0.1-0.7,0.4-1
		c0.2-0.3,0.6-0.4,0.9-0.4c0.4,0,0.6,0.1,0.9,0.3c0.2,0.2,0.3,0.5,0.3,0.9l0,0.2H91.6z M90.9,60.5l-1.7,2.7l-0.9-2.7h0.6l0.4,1.5
		l0.9-1.5H90.9z M87.4,61.5c-0.1-0.4-0.3-0.5-0.6-0.5c-0.3,0-0.6,0.2-0.7,0.5H87.4z M86.1,61.9c0,0.2,0.1,0.3,0.2,0.4
		c0.1,0.1,0.3,0.2,0.5,0.2c0.3,0,0.5-0.1,0.6-0.3l0.4,0.2c-0.1,0.2-0.3,0.3-0.5,0.4C87.2,62.9,87,63,86.7,63c-0.4,0-0.7-0.1-0.9-0.3
		c-0.2-0.2-0.3-0.5-0.3-0.9c0-0.4,0.1-0.7,0.4-1c0.2-0.3,0.6-0.4,0.9-0.4c0.4,0,0.6,0.1,0.9,0.3c0.2,0.2,0.3,0.5,0.3,0.9l0,0.2H86.1
		z M84.2,61.6c0-0.2-0.1-0.4-0.2-0.5c-0.1-0.1-0.3-0.2-0.5-0.2c-0.2,0-0.4,0.1-0.6,0.2c-0.1,0.2-0.2,0.4-0.2,0.6
		c0,0.2,0.1,0.4,0.2,0.5c0.1,0.1,0.3,0.2,0.5,0.2c0.2,0,0.4-0.1,0.6-0.3C84.1,62.1,84.2,61.9,84.2,61.6 M85.2,58.6l-0.5,4.3H84
		l0-0.3c-0.1,0.1-0.3,0.2-0.4,0.2c-0.1,0-0.2,0.1-0.4,0.1c-0.3,0-0.6-0.1-0.8-0.3c-0.2-0.2-0.3-0.5-0.3-0.9c0-0.4,0.1-0.7,0.4-0.9
		c0.2-0.2,0.5-0.4,0.9-0.4c0.2,0,0.3,0,0.5,0.1c0.1,0.1,0.3,0.2,0.4,0.3l0.3-2.2H85.2z M78.1,61l-0.2,1.9h-0.6l0.2-1.9h-0.3l0.1-0.5
		h0.3l0.1-1.1h0.6l-0.1,1.1h0.5L78.6,61H78.1z M75.2,60.5l0,0.2c0.2-0.2,0.5-0.3,0.7-0.3c0.2,0,0.4,0.1,0.6,0.2
		c0.1,0.1,0.2,0.3,0.2,0.5c0,0.1,0,0.3,0,0.4l-0.2,1.3h-0.6l0.2-1.4l0-0.1l0-0.1c0-0.2-0.1-0.3-0.4-0.3c-0.1,0-0.3,0-0.4,0.1
		c-0.1,0.1-0.2,0.2-0.2,0.3c0,0,0,0.1-0.1,0.2l0,0.3l-0.1,1.1h-0.6l0.3-2.4H75.2z M73.2,61.5c-0.1-0.4-0.3-0.5-0.6-0.5
		c-0.3,0-0.6,0.2-0.7,0.5H73.2z M71.9,61.9c0,0.2,0.1,0.3,0.2,0.4c0.1,0.1,0.3,0.2,0.5,0.2c0.3,0,0.5-0.1,0.6-0.3l0.4,0.2
		c-0.1,0.2-0.3,0.3-0.5,0.4C73,62.9,72.8,63,72.6,63c-0.4,0-0.7-0.1-0.9-0.3c-0.2-0.2-0.3-0.5-0.3-0.9c0-0.4,0.1-0.7,0.4-1
		c0.2-0.3,0.6-0.4,0.9-0.4c0.4,0,0.6,0.1,0.9,0.3c0.2,0.2,0.3,0.5,0.3,0.9l0,0.2H71.9z M70,61.6c0-0.2-0.1-0.4-0.2-0.5
		c-0.1-0.1-0.3-0.2-0.5-0.2c-0.2,0-0.4,0.1-0.6,0.2c-0.1,0.2-0.2,0.4-0.2,0.6c0,0.2,0.1,0.4,0.2,0.5c0.1,0.1,0.3,0.2,0.5,0.2
		c0.2,0,0.4-0.1,0.6-0.3C70,62.1,70,61.9,70,61.6 M71,58.6l-0.5,4.3h-0.6l0-0.3c-0.1,0.1-0.3,0.2-0.4,0.2c-0.1,0-0.2,0.1-0.4,0.1
		c-0.3,0-0.6-0.1-0.8-0.3c-0.2-0.2-0.3-0.5-0.3-0.9c0-0.4,0.1-0.7,0.4-0.9c0.2-0.2,0.5-0.4,0.9-0.4c0.2,0,0.3,0,0.5,0.1
		c0.1,0.1,0.3,0.2,0.4,0.3l0.3-2.2H71z M65.9,60.5l0,0.2c0.2-0.2,0.5-0.3,0.7-0.3c0.2,0,0.4,0.1,0.6,0.2c0.1,0.1,0.2,0.3,0.2,0.5
		c0,0.1,0,0.3,0,0.4l-0.2,1.3h-0.6l0.2-1.4l0-0.1l0-0.1c0-0.2-0.1-0.3-0.4-0.3c-0.1,0-0.3,0-0.4,0.1c-0.1,0.1-0.1,0.2-0.2,0.3
		c0,0,0,0.1-0.1,0.2l0,0.3l-0.1,1.1h-0.6l0.3-2.4H65.9z M63.9,61.5c-0.1-0.4-0.3-0.5-0.6-0.5c-0.3,0-0.6,0.2-0.7,0.5H63.9z
		 M62.6,61.9c0,0.2,0.1,0.3,0.2,0.4c0.1,0.1,0.3,0.2,0.5,0.2c0.3,0,0.5-0.1,0.6-0.3l0.4,0.2c-0.1,0.2-0.3,0.3-0.5,0.4
		c-0.2,0.1-0.4,0.1-0.6,0.1c-0.4,0-0.7-0.1-0.9-0.3c-0.2-0.2-0.3-0.5-0.3-0.9c0-0.4,0.1-0.7,0.4-1c0.2-0.3,0.6-0.4,0.9-0.4
		c0.4,0,0.6,0.1,0.9,0.3c0.2,0.2,0.3,0.5,0.3,0.9l0,0.2H62.6z M61,61.7c0-0.2-0.1-0.4-0.2-0.5c-0.1-0.1-0.3-0.2-0.5-0.2
		c-0.2,0-0.4,0.1-0.6,0.2c-0.2,0.2-0.2,0.4-0.2,0.6c0,0.2,0.1,0.4,0.2,0.5c0.1,0.1,0.3,0.2,0.5,0.2c0.2,0,0.4-0.1,0.5-0.2
		C60.9,62.1,61,61.9,61,61.7 M59.7,60.5l0,0.3c0.2-0.2,0.5-0.3,0.8-0.3c0.3,0,0.6,0.1,0.8,0.3c0.2,0.2,0.3,0.5,0.3,0.8
		c0,0.4-0.1,0.7-0.4,0.9c-0.2,0.3-0.5,0.4-0.9,0.4c-0.2,0-0.3,0-0.5-0.1c-0.1-0.1-0.3-0.2-0.4-0.3l-0.2,1.7h-0.6l0.5-3.7H59.7z
		 M57.7,61.5c-0.1-0.4-0.3-0.5-0.6-0.5c-0.3,0-0.6,0.2-0.7,0.5H57.7z M56.4,61.9c0,0.2,0.1,0.3,0.2,0.4c0.1,0.1,0.3,0.2,0.5,0.2
		c0.3,0,0.5-0.1,0.6-0.3l0.4,0.2c-0.1,0.2-0.3,0.3-0.5,0.4C57.5,62.9,57.3,63,57,63c-0.4,0-0.7-0.1-0.9-0.3
		c-0.2-0.2-0.3-0.5-0.3-0.9c0-0.4,0.1-0.7,0.4-1c0.2-0.3,0.6-0.4,0.9-0.4c0.4,0,0.6,0.1,0.9,0.3c0.2,0.2,0.3,0.5,0.3,0.9l0,0.2H56.4
		z M54.5,61.6c0-0.2-0.1-0.4-0.2-0.5c-0.1-0.1-0.3-0.2-0.5-0.2c-0.2,0-0.4,0.1-0.6,0.2c-0.1,0.2-0.2,0.4-0.2,0.6
		c0,0.2,0.1,0.4,0.2,0.5c0.1,0.1,0.3,0.2,0.5,0.2c0.2,0,0.4-0.1,0.6-0.3C54.4,62.1,54.5,61.9,54.5,61.6 M55.5,58.6l-0.5,4.3h-0.6
		l0-0.3c-0.1,0.1-0.3,0.2-0.4,0.2c-0.1,0-0.2,0.1-0.4,0.1c-0.3,0-0.6-0.1-0.8-0.3c-0.2-0.2-0.3-0.5-0.3-0.9c0-0.4,0.1-0.7,0.4-0.9
		c0.2-0.2,0.5-0.4,0.9-0.4c0.2,0,0.3,0,0.5,0.1c0.1,0.1,0.3,0.2,0.4,0.3l0.3-2.2H55.5z M50.4,60.5l0,0.2c0.2-0.2,0.5-0.3,0.7-0.3
		c0.2,0,0.4,0.1,0.6,0.2c0.1,0.1,0.2,0.3,0.2,0.5c0,0.1,0,0.3,0,0.4l-0.2,1.3h-0.6l0.2-1.4l0-0.1l0-0.1c0-0.2-0.1-0.3-0.4-0.3
		c-0.1,0-0.3,0-0.4,0.1c-0.1,0.1-0.1,0.2-0.2,0.3c0,0,0,0.1-0.1,0.2l0,0.3l-0.1,1.1h-0.6l0.3-2.4H50.4z M49,60.5l-0.3,2.4h-0.6
		l0.3-2.4H49z M49.2,59.4c0,0.1,0,0.2-0.1,0.2c-0.1,0.1-0.1,0.1-0.2,0.1c-0.1,0-0.2,0-0.2-0.1c-0.1-0.1-0.1-0.1-0.1-0.2
		s0-0.2,0.1-0.2c0.1-0.1,0.1-0.1,0.2-0.1c0.1,0,0.2,0,0.2,0.1C49.1,59.2,49.2,59.3,49.2,59.4 M126.6,61l-0.2,1.9h-0.6l0.2-1.9h-0.3
		l0.1-0.5h0.3l0.1-1.1h0.6l-0.1,1.1h0.5l-0.1,0.5H126.6z"/>
	<path class="st1" d="M147.9,72.3l-0.5,0.5c-0.2-0.2-0.5-0.3-0.7-0.3c-0.1,0-0.3,0-0.3,0.1c-0.1,0.1-0.1,0.2-0.1,0.3
		c0,0.1,0,0.2,0.1,0.3c0.1,0.1,0.2,0.2,0.5,0.3c0.3,0.2,0.6,0.4,0.7,0.5c0.1,0.2,0.2,0.4,0.2,0.6c0,0.4-0.1,0.6-0.4,0.8
		c-0.3,0.2-0.6,0.3-1,0.3c-0.6,0-1-0.2-1.4-0.7l0.6-0.4c0.2,0.3,0.5,0.4,0.8,0.4c0.2,0,0.3,0,0.4-0.1c0.1-0.1,0.1-0.2,0.1-0.3
		c0-0.1,0-0.2-0.1-0.3l-0.2-0.1c-0.1-0.1-0.2-0.1-0.4-0.2c-0.3-0.2-0.5-0.3-0.6-0.5c-0.1-0.2-0.2-0.3-0.2-0.6c0-0.3,0.1-0.6,0.4-0.8
		c0.3-0.2,0.6-0.3,1-0.3C147.1,71.7,147.5,71.9,147.9,72.3 M144.3,71.9L144,74c0,0.2,0,0.3-0.1,0.5c0,0.1-0.1,0.3-0.1,0.3
		c-0.1,0.2-0.2,0.3-0.4,0.5c-0.3,0.2-0.7,0.3-1.2,0.3c-0.5,0-0.8-0.1-1.1-0.4c-0.3-0.2-0.4-0.6-0.4-1l0-0.2l0-0.3l0.2-2h0.9
		l-0.3,2.1l0,0.2l0,0.2c0,0.4,0.2,0.6,0.7,0.6c0.3,0,0.4-0.1,0.6-0.2c0.1-0.1,0.2-0.4,0.2-0.7l0.3-2.2H144.3z M138.6,71.9l0,0.3
		c0.3-0.3,0.6-0.4,0.9-0.4c0.3,0,0.5,0.1,0.7,0.3l-0.6,0.7c-0.2-0.1-0.3-0.2-0.5-0.2c-0.1,0-0.2,0-0.3,0.1c-0.1,0-0.2,0.1-0.2,0.2
		c-0.1,0.1-0.1,0.2-0.2,0.4c0,0.1-0.1,0.3-0.1,0.5l-0.2,1.9h-0.9l0.5-3.7H138.6z M136.1,72.7l-0.4,2.9h-0.9l0.4-2.9h-0.5l0.1-0.8
		h0.5l0.2-1.7h0.9l-0.2,1.7h0.8l-0.1,0.8H136.1z M128.3,72.7l-0.4,2.9H127l0.4-2.9h-0.5l0.1-0.8h0.5l0.2-1.7h0.9l-0.2,1.7h0.8
		l-0.1,0.8H128.3z M123.7,71.9l0,0.3c0.4-0.3,0.7-0.4,1.1-0.4c0.4,0,0.7,0.1,0.9,0.3c0.2,0.2,0.3,0.5,0.3,0.8c0,0.2,0,0.4,0,0.7
		l-0.3,2h-0.9l0.3-2.2l0-0.2l0-0.2c0-0.3-0.2-0.5-0.6-0.5c-0.2,0-0.4,0.1-0.6,0.2c-0.1,0.1-0.2,0.2-0.3,0.4c0,0.1-0.1,0.2-0.1,0.3
		l-0.1,0.4l-0.2,1.8h-0.9l0.5-3.7H123.7z M120.6,73.3c-0.1-0.6-0.4-0.9-1-0.9c-0.5,0-0.9,0.3-1,0.9H120.6z M118.6,74
		c0,0.3,0.1,0.5,0.3,0.7c0.2,0.2,0.4,0.3,0.8,0.3c0.4,0,0.7-0.2,1-0.5l0.7,0.4c-0.2,0.3-0.5,0.5-0.7,0.6c-0.2,0.1-0.6,0.2-0.9,0.2
		c-0.6,0-1.1-0.2-1.4-0.5c-0.3-0.3-0.5-0.8-0.5-1.4c0-0.6,0.2-1.1,0.6-1.5c0.4-0.4,0.9-0.6,1.4-0.6c0.6,0,1,0.2,1.3,0.5
		c0.3,0.4,0.5,0.8,0.5,1.4l0,0.3H118.6z M112.4,71.9l0,0.3c0.3-0.3,0.6-0.4,1-0.4c0.2,0,0.4,0,0.6,0.1c0.1,0.1,0.2,0.2,0.3,0.5
		c0.4-0.4,0.8-0.6,1.2-0.6c0.8,0,1.1,0.3,1.1,1l0,0.3l0,0.5l-0.3,2h-0.9l0.3-2.1c0-0.2,0-0.3,0-0.4c0-0.3-0.2-0.5-0.5-0.5
		c-0.1,0-0.2,0-0.3,0.1c-0.1,0-0.2,0.1-0.3,0.2c-0.1,0.1-0.1,0.2-0.2,0.3c0,0.1-0.1,0.3-0.1,0.5l-0.3,2.1h-0.9l0.3-2.2
		c0-0.2,0-0.3,0-0.4c0-0.3-0.2-0.5-0.5-0.5c-0.5,0-0.8,0.3-0.9,1l-0.3,2.1H111l0.5-3.7H112.4z M109.3,73.6c0-0.3-0.1-0.6-0.3-0.8
		c-0.2-0.2-0.4-0.3-0.7-0.3c-0.4,0-0.7,0.1-0.9,0.4s-0.4,0.6-0.4,1c0,0.3,0.1,0.6,0.3,0.8c0.2,0.2,0.5,0.3,0.8,0.3
		c0.3,0,0.6-0.1,0.9-0.4C109.2,74.3,109.3,74,109.3,73.6 M107.2,71.9l0,0.4c0.4-0.3,0.8-0.5,1.2-0.5c0.5,0,0.9,0.2,1.3,0.5
		c0.3,0.3,0.5,0.8,0.5,1.3c0,0.6-0.2,1.1-0.6,1.5c-0.4,0.4-0.9,0.6-1.4,0.6c-0.3,0-0.5,0-0.7-0.1c-0.2-0.1-0.4-0.3-0.6-0.5l-0.3,2.7
		h-0.9l0.7-5.8H107.2z M104.1,73.6c0-0.4-0.1-0.6-0.3-0.8c-0.2-0.2-0.5-0.3-0.8-0.3c-0.4,0-0.7,0.1-0.9,0.4
		c-0.2,0.2-0.4,0.5-0.4,0.9c0,0.4,0.1,0.7,0.3,0.9c0.2,0.2,0.5,0.3,0.9,0.3c0.4,0,0.6-0.1,0.9-0.4C104,74.3,104.1,74,104.1,73.6
		 M105,73.7c0,0.6-0.2,1-0.6,1.4c-0.4,0.4-0.9,0.6-1.5,0.6c-0.6,0-1.1-0.2-1.5-0.5c-0.4-0.4-0.6-0.8-0.6-1.4c0-0.6,0.2-1.1,0.6-1.4
		c0.4-0.4,0.9-0.6,1.5-0.6c0.6,0,1.1,0.2,1.5,0.5C104.8,72.6,105,73.1,105,73.7 M100.4,68.9l-0.8,6.7h-0.9l0.8-6.7H100.4z
		 M96.9,73.3c-0.1-0.6-0.4-0.9-1-0.9c-0.5,0-0.9,0.3-1,0.9H96.9z M94.8,74c0,0.3,0.1,0.5,0.3,0.7c0.2,0.2,0.4,0.3,0.7,0.3
		c0.4,0,0.7-0.2,1-0.5l0.7,0.4c-0.2,0.3-0.5,0.5-0.7,0.6c-0.2,0.1-0.6,0.2-0.9,0.2c-0.6,0-1.1-0.2-1.4-0.5c-0.3-0.3-0.5-0.8-0.5-1.4
		c0-0.6,0.2-1.1,0.6-1.5c0.4-0.4,0.9-0.6,1.4-0.6c0.6,0,1,0.2,1.3,0.5c0.3,0.4,0.5,0.8,0.5,1.4l0,0.3H94.8z M93.7,71.9l-2.6,4.2
		l-1.4-4.2h0.9l0.7,2.4l1.4-2.4H93.7z M88.2,73.3c-0.1-0.6-0.4-0.9-1-0.9c-0.5,0-0.9,0.3-1,0.9H88.2z M86.2,74
		c0,0.3,0.1,0.5,0.3,0.7c0.2,0.2,0.4,0.3,0.7,0.3c0.4,0,0.7-0.2,1-0.5l0.7,0.4c-0.2,0.3-0.5,0.5-0.7,0.6c-0.2,0.1-0.6,0.2-0.9,0.2
		c-0.6,0-1.1-0.2-1.4-0.5c-0.3-0.3-0.5-0.8-0.5-1.4c0-0.6,0.2-1.1,0.6-1.5c0.4-0.4,0.9-0.6,1.4-0.6c0.6,0,1,0.2,1.3,0.5
		c0.3,0.4,0.5,0.8,0.5,1.4l0,0.3H86.2z M83.3,73.6c0-0.3-0.1-0.6-0.3-0.8c-0.2-0.2-0.5-0.3-0.8-0.3c-0.4,0-0.6,0.1-0.9,0.4
		c-0.2,0.3-0.3,0.6-0.3,1c0,0.3,0.1,0.6,0.3,0.8c0.2,0.2,0.5,0.3,0.8,0.3c0.3,0,0.6-0.1,0.9-0.4C83.1,74.3,83.3,73.9,83.3,73.6
		 M84.7,68.9l-0.8,6.7H83l0-0.4c-0.2,0.2-0.4,0.3-0.6,0.4c-0.2,0.1-0.4,0.1-0.6,0.1c-0.5,0-1-0.2-1.3-0.5c-0.3-0.3-0.5-0.8-0.5-1.3
		c0-0.6,0.2-1.1,0.6-1.5c0.4-0.4,0.8-0.6,1.4-0.6c0.3,0,0.5,0,0.7,0.1c0.2,0.1,0.4,0.3,0.6,0.5l0.4-3.5H84.7z M73.6,72.7l-0.4,2.9
		h-0.9l0.4-2.9h-0.5l0.1-0.8h0.5l0.2-1.7H74l-0.2,1.7h0.8l-0.1,0.8H73.6z M69,71.9l0,0.3c0.4-0.3,0.7-0.4,1.1-0.4
		c0.4,0,0.7,0.1,0.9,0.3c0.2,0.2,0.3,0.5,0.3,0.8c0,0.2,0,0.4,0,0.7l-0.3,2h-0.9l0.3-2.2l0-0.2l0-0.2c0-0.3-0.2-0.5-0.6-0.5
		c-0.2,0-0.4,0.1-0.6,0.2c-0.1,0.1-0.2,0.2-0.3,0.4c0,0.1-0.1,0.2-0.1,0.3l-0.1,0.4l-0.2,1.8h-0.9l0.5-3.7H69z M65.9,73.3
		c-0.1-0.6-0.4-0.9-1-0.9c-0.5,0-0.9,0.3-1,0.9H65.9z M63.9,74c0,0.3,0.1,0.5,0.3,0.7c0.2,0.2,0.4,0.3,0.7,0.3c0.4,0,0.7-0.2,1-0.5
		l0.7,0.4c-0.2,0.3-0.5,0.5-0.7,0.6c-0.2,0.1-0.6,0.2-0.9,0.2c-0.6,0-1.1-0.2-1.4-0.5c-0.4-0.3-0.5-0.8-0.5-1.4
		c0-0.6,0.2-1.1,0.6-1.5c0.4-0.4,0.9-0.6,1.4-0.6c0.6,0,1,0.2,1.3,0.5c0.3,0.4,0.5,0.8,0.5,1.4l0,0.3H63.9z M61,73.6
		c0-0.3-0.1-0.6-0.3-0.8c-0.2-0.2-0.5-0.3-0.8-0.3c-0.3,0-0.6,0.1-0.9,0.4c-0.2,0.3-0.3,0.6-0.3,1c0,0.3,0.1,0.6,0.3,0.8
		c0.2,0.2,0.5,0.3,0.8,0.3c0.3,0,0.6-0.1,0.9-0.4C60.8,74.3,61,73.9,61,73.6 M62.4,68.9l-0.8,6.7h-0.9l0-0.4
		c-0.2,0.2-0.4,0.3-0.6,0.4c-0.2,0.1-0.4,0.1-0.6,0.1c-0.5,0-1-0.2-1.3-0.5c-0.3-0.3-0.5-0.8-0.5-1.3c0-0.6,0.2-1.1,0.6-1.5
		c0.4-0.4,0.8-0.6,1.4-0.6c0.3,0,0.5,0,0.7,0.1c0.2,0.1,0.4,0.3,0.6,0.5l0.4-3.5H62.4z M54.5,71.9l0,0.3c0.4-0.3,0.7-0.4,1.1-0.4
		c0.4,0,0.7,0.1,0.9,0.3c0.2,0.2,0.3,0.5,0.3,0.8c0,0.2,0,0.4,0,0.7l-0.3,2h-0.9l0.3-2.2l0-0.2l0-0.2c0-0.3-0.2-0.5-0.6-0.5
		c-0.2,0-0.4,0.1-0.6,0.2c-0.1,0.1-0.2,0.2-0.3,0.4c0,0.1-0.1,0.2-0.1,0.3l-0.1,0.4L54,75.6h-0.9l0.5-3.7H54.5z M51.4,73.3
		c-0.1-0.6-0.4-0.9-1-0.9c-0.5,0-0.9,0.3-1,0.9H51.4z M49.4,74c0,0.3,0.1,0.5,0.3,0.7c0.2,0.2,0.4,0.3,0.7,0.3c0.4,0,0.7-0.2,1-0.5
		l0.7,0.4c-0.2,0.3-0.5,0.5-0.7,0.6c-0.2,0.1-0.6,0.2-0.9,0.2c-0.6,0-1.1-0.2-1.4-0.5c-0.3-0.3-0.5-0.8-0.5-1.4
		c0-0.6,0.2-1.1,0.6-1.5c0.4-0.4,0.9-0.6,1.4-0.6c0.6,0,1,0.2,1.3,0.5c0.3,0.4,0.5,0.8,0.5,1.4l0,0.3H49.4z M46.7,73.6
		c0-0.3-0.1-0.6-0.3-0.8c-0.2-0.2-0.4-0.3-0.7-0.3c-0.4,0-0.7,0.1-0.9,0.4c-0.2,0.3-0.4,0.6-0.4,1c0,0.3,0.1,0.6,0.3,0.8
		c0.2,0.2,0.5,0.3,0.8,0.3c0.3,0,0.6-0.1,0.9-0.4C46.6,74.3,46.7,74,46.7,73.6 M44.7,71.9l0,0.4c0.4-0.3,0.8-0.5,1.2-0.5
		c0.5,0,0.9,0.2,1.3,0.5c0.3,0.3,0.5,0.8,0.5,1.3c0,0.6-0.2,1.1-0.6,1.5c-0.4,0.4-0.9,0.6-1.4,0.6c-0.3,0-0.5,0-0.7-0.1
		c-0.2-0.1-0.4-0.3-0.6-0.5l-0.3,2.7H43l0.7-5.8H44.7z M41.5,73.3c-0.1-0.6-0.4-0.9-1-0.9c-0.5,0-0.9,0.3-1,0.9H41.5z M39.5,74
		c0,0.3,0.1,0.5,0.3,0.7c0.2,0.2,0.4,0.3,0.8,0.3c0.4,0,0.7-0.2,1-0.5l0.7,0.4c-0.2,0.3-0.5,0.5-0.7,0.6c-0.2,0.1-0.6,0.2-0.9,0.2
		c-0.6,0-1.1-0.2-1.4-0.5c-0.4-0.3-0.5-0.8-0.5-1.4c0-0.6,0.2-1.1,0.6-1.5c0.4-0.4,0.9-0.6,1.4-0.6c0.6,0,1,0.2,1.3,0.5
		c0.3,0.4,0.5,0.8,0.5,1.4l0,0.3H39.5z M36.6,73.6c0-0.3-0.1-0.6-0.3-0.8c-0.2-0.2-0.5-0.3-0.8-0.3c-0.3,0-0.6,0.1-0.9,0.4
		c-0.2,0.3-0.3,0.6-0.3,1c0,0.3,0.1,0.6,0.3,0.8c0.2,0.2,0.5,0.3,0.8,0.3c0.3,0,0.6-0.1,0.9-0.4C36.5,74.3,36.6,73.9,36.6,73.6
		 M38,68.9l-0.8,6.7h-0.9l0-0.4c-0.2,0.2-0.4,0.3-0.6,0.4c-0.2,0.1-0.4,0.1-0.6,0.1c-0.5,0-1-0.2-1.3-0.5c-0.3-0.3-0.5-0.8-0.5-1.3
		c0-0.6,0.2-1.1,0.6-1.5c0.4-0.4,0.8-0.6,1.4-0.6c0.3,0,0.5,0,0.7,0.1c0.2,0.1,0.4,0.3,0.6,0.5l0.4-3.5H38z M30.1,71.9l0,0.3
		c0.4-0.3,0.7-0.4,1.1-0.4c0.4,0,0.7,0.1,0.9,0.3c0.2,0.2,0.3,0.5,0.3,0.8c0,0.2,0,0.4,0,0.7l-0.3,2h-0.9l0.3-2.2l0-0.2l0-0.2
		c0-0.3-0.2-0.5-0.6-0.5c-0.2,0-0.4,0.1-0.6,0.2c-0.1,0.1-0.2,0.2-0.3,0.4c0,0.1-0.1,0.2-0.1,0.3l-0.1,0.4l-0.2,1.8h-0.9l0.5-3.7
		H30.1z M27.9,71.9l-0.5,3.7h-0.9l0.5-3.7H27.9z M28.2,70.1c0,0.1,0,0.2-0.1,0.3c-0.1,0.1-0.2,0.1-0.3,0.1c-0.1,0-0.2,0-0.3-0.1
		c-0.1-0.1-0.1-0.2-0.1-0.3c0-0.1,0-0.2,0.1-0.3c0.1-0.1,0.2-0.1,0.3-0.1c0.1,0,0.2,0,0.3,0.1C28.1,69.9,28.2,70,28.2,70.1
		 M150,72.7l-0.4,2.9h-0.9l0.4-2.9h-0.5l0.1-0.8h0.5l0.2-1.7h0.9l-0.2,1.7h0.8l-0.1,0.8H150z"/>
	<path class="st3" d="M125,60.9l-0.3,0.3c-0.2-0.1-0.3-0.2-0.4-0.2c-0.1,0-0.2,0-0.2,0.1c-0.1,0-0.1,0.1-0.1,0.2
		c0,0.1,0,0.1,0.1,0.2c0,0,0.2,0.1,0.3,0.2c0.2,0.1,0.4,0.2,0.4,0.3c0.1,0.1,0.1,0.2,0.1,0.4c0,0.2-0.1,0.4-0.2,0.5
		c-0.2,0.1-0.4,0.2-0.6,0.2c-0.4,0-0.7-0.2-0.9-0.5l0.4-0.3c0.2,0.2,0.3,0.3,0.5,0.3c0.1,0,0.2,0,0.2-0.1c0.1-0.1,0.1-0.1,0.1-0.2
		c0-0.1,0-0.1-0.1-0.2l-0.1-0.1l-0.2-0.1c-0.2-0.1-0.3-0.2-0.4-0.3c-0.1-0.1-0.1-0.2-0.1-0.4c0-0.2,0.1-0.4,0.2-0.5
		c0.2-0.1,0.4-0.2,0.6-0.2C124.5,60.5,124.8,60.6,125,60.9 M122.7,60.6l-0.2,1.4l-0.1,0.3l-0.1,0.2c0,0.1-0.1,0.2-0.2,0.3
		c-0.2,0.1-0.4,0.2-0.8,0.2c-0.3,0-0.5-0.1-0.7-0.2c-0.2-0.2-0.3-0.4-0.3-0.6l0-0.1l0-0.2l0.2-1.3h0.6l-0.2,1.3l0,0.2l0,0.1
		c0,0.2,0.1,0.4,0.5,0.4c0.2,0,0.3,0,0.4-0.1c0.1-0.1,0.1-0.2,0.2-0.4l0.2-1.4H122.7z M119.1,60.6l0,0.2c0.2-0.2,0.4-0.3,0.6-0.3
		c0.2,0,0.3,0.1,0.5,0.2l-0.4,0.5c-0.1-0.1-0.2-0.1-0.3-0.1c-0.1,0-0.1,0-0.2,0c-0.1,0-0.1,0.1-0.1,0.1c0,0.1-0.1,0.1-0.1,0.2
		c0,0.1,0,0.2-0.1,0.3l-0.2,1.2h-0.6l0.3-2.4H119.1z M117.5,61.1l-0.2,1.9h-0.6l0.2-1.9h-0.3l0.1-0.5h0.3l0.1-1.1h0.6l-0.1,1.1h0.5
		l-0.1,0.5H117.5z M112.6,61.1l-0.2,1.9h-0.6l0.2-1.9h-0.3l0.1-0.5h0.3l0.1-1.1h0.6l-0.1,1.1h0.5l-0.1,0.5H112.6z M109.7,60.6l0,0.2
		c0.2-0.2,0.5-0.3,0.7-0.3c0.2,0,0.4,0.1,0.6,0.2c0.1,0.1,0.2,0.3,0.2,0.5c0,0.1,0,0.3,0,0.4l-0.2,1.3h-0.6l0.2-1.4l0-0.1l0-0.1
		c0-0.2-0.1-0.3-0.4-0.3c-0.1,0-0.3,0-0.4,0.1c-0.1,0.1-0.1,0.2-0.2,0.3c0,0,0,0.1-0.1,0.2l0,0.3l-0.1,1.1h-0.6l0.3-2.4H109.7z
		 M107.7,61.5c-0.1-0.4-0.3-0.5-0.6-0.5c-0.3,0-0.6,0.2-0.7,0.5H107.7z M106.4,62c0,0.2,0.1,0.3,0.2,0.4c0.1,0.1,0.3,0.2,0.5,0.2
		c0.3,0,0.5-0.1,0.6-0.3l0.4,0.2c-0.1,0.2-0.3,0.3-0.5,0.4c-0.2,0.1-0.4,0.1-0.6,0.1c-0.4,0-0.7-0.1-0.9-0.3
		c-0.2-0.2-0.3-0.5-0.3-0.9c0-0.4,0.1-0.7,0.4-1c0.2-0.3,0.6-0.4,0.9-0.4c0.4,0,0.6,0.1,0.9,0.3c0.2,0.2,0.3,0.5,0.3,0.9l0,0.2
		H106.4z M102.5,60.6l0,0.2c0.2-0.2,0.4-0.3,0.7-0.3c0.2,0,0.3,0,0.4,0.1c0.1,0.1,0.2,0.2,0.2,0.3c0.2-0.3,0.5-0.4,0.8-0.4
		c0.5,0,0.7,0.2,0.7,0.6l0,0.2l0,0.3L105,63h-0.6l0.2-1.4l0-0.3c0-0.2-0.1-0.3-0.3-0.3c-0.1,0-0.2,0-0.2,0c-0.1,0-0.1,0.1-0.2,0.1
		c0,0.1-0.1,0.1-0.1,0.2c0,0.1,0,0.2-0.1,0.3l-0.2,1.3H103l0.2-1.4l0-0.3c0-0.2-0.1-0.3-0.3-0.3c-0.3,0-0.5,0.2-0.6,0.6l-0.2,1.3
		h-0.6l0.3-2.4H102.5z M100.5,61.7c0-0.2-0.1-0.4-0.2-0.5c-0.1-0.1-0.3-0.2-0.5-0.2c-0.2,0-0.4,0.1-0.6,0.2
		c-0.2,0.2-0.2,0.4-0.2,0.6c0,0.2,0.1,0.4,0.2,0.5c0.1,0.1,0.3,0.2,0.5,0.2c0.2,0,0.4-0.1,0.5-0.2C100.4,62.2,100.5,62,100.5,61.7
		 M99.2,60.6l0,0.2c0.2-0.2,0.5-0.3,0.8-0.3c0.3,0,0.6,0.1,0.8,0.3c0.2,0.2,0.3,0.5,0.3,0.8c0,0.4-0.1,0.7-0.4,0.9
		c-0.2,0.3-0.5,0.4-0.9,0.4c-0.2,0-0.3,0-0.5-0.1c-0.1-0.1-0.3-0.2-0.4-0.3l-0.2,1.7h-0.6l0.5-3.7H99.2z M97.2,61.7
		c0-0.2-0.1-0.4-0.2-0.5C96.9,61,96.7,61,96.5,61c-0.2,0-0.4,0.1-0.6,0.2c-0.1,0.2-0.2,0.4-0.2,0.6c0,0.2,0.1,0.4,0.2,0.6
		c0.1,0.1,0.3,0.2,0.5,0.2c0.2,0,0.4-0.1,0.6-0.2C97.1,62.2,97.2,62,97.2,61.7 M97.8,61.8c0,0.4-0.1,0.7-0.4,0.9
		c-0.3,0.2-0.6,0.4-1,0.4c-0.4,0-0.7-0.1-1-0.4c-0.3-0.2-0.4-0.5-0.4-0.9c0-0.4,0.1-0.7,0.4-0.9c0.3-0.2,0.6-0.4,1-0.4
		c0.4,0,0.7,0.1,0.9,0.3C97.6,61.1,97.8,61.4,97.8,61.8 M94.8,58.7L94.3,63h-0.6l0.5-4.3H94.8z M92.6,61.5C92.5,61.2,92.3,61,92,61
		c-0.3,0-0.6,0.2-0.7,0.5H92.6z M91.3,62c0,0.2,0.1,0.3,0.2,0.4c0.1,0.1,0.3,0.2,0.5,0.2c0.3,0,0.5-0.1,0.6-0.3l0.4,0.2
		c-0.1,0.2-0.3,0.3-0.5,0.4C92.4,63,92.2,63,91.9,63c-0.4,0-0.7-0.1-0.9-0.3c-0.2-0.2-0.3-0.5-0.3-0.9c0-0.4,0.1-0.7,0.4-1
		c0.2-0.3,0.6-0.4,0.9-0.4c0.4,0,0.6,0.1,0.9,0.3c0.2,0.2,0.3,0.5,0.3,0.9l0,0.2H91.3z M90.6,60.6l-1.7,2.7L88,60.6h0.6l0.4,1.5
		l0.9-1.5H90.6z M87.1,61.5C87,61.2,86.8,61,86.5,61c-0.3,0-0.6,0.2-0.7,0.5H87.1z M85.8,62c0,0.2,0.1,0.3,0.2,0.4
		c0.1,0.1,0.3,0.2,0.5,0.2c0.3,0,0.5-0.1,0.6-0.3l0.4,0.2c-0.1,0.2-0.3,0.3-0.5,0.4C86.9,63,86.7,63,86.4,63c-0.4,0-0.7-0.1-0.9-0.3
		c-0.2-0.2-0.3-0.5-0.3-0.9c0-0.4,0.1-0.7,0.4-1c0.2-0.3,0.6-0.4,0.9-0.4c0.4,0,0.6,0.1,0.9,0.3c0.2,0.2,0.3,0.5,0.3,0.9l0,0.2H85.8
		z M83.9,61.7c0-0.2-0.1-0.4-0.2-0.5c-0.1-0.1-0.3-0.2-0.5-0.2c-0.2,0-0.4,0.1-0.6,0.2c-0.1,0.2-0.2,0.4-0.2,0.6
		c0,0.2,0.1,0.4,0.2,0.5c0.1,0.1,0.3,0.2,0.5,0.2c0.2,0,0.4-0.1,0.6-0.3C83.8,62.1,83.9,61.9,83.9,61.7 M84.9,58.7L84.3,63h-0.6
		l0-0.3c-0.1,0.1-0.3,0.2-0.4,0.2C83.3,63,83.2,63,83,63c-0.3,0-0.6-0.1-0.8-0.3c-0.2-0.2-0.3-0.5-0.3-0.9c0-0.4,0.1-0.7,0.4-0.9
		c0.2-0.2,0.5-0.4,0.9-0.4c0.2,0,0.3,0,0.5,0.1c0.1,0.1,0.3,0.2,0.4,0.3l0.3-2.2H84.9z M77.8,61.1L77.6,63H77l0.2-1.9h-0.3l0.1-0.5
		h0.3l0.1-1.1H78l-0.1,1.1h0.5l-0.1,0.5H77.8z M74.9,60.6l0,0.2c0.2-0.2,0.5-0.3,0.7-0.3c0.2,0,0.4,0.1,0.6,0.2
		c0.1,0.1,0.2,0.3,0.2,0.5c0,0.1,0,0.3,0,0.4L76.1,63h-0.6l0.2-1.4l0-0.1l0-0.1c0-0.2-0.1-0.3-0.4-0.3c-0.1,0-0.3,0-0.4,0.1
		c-0.1,0.1-0.2,0.2-0.2,0.3c0,0,0,0.1-0.1,0.2l0,0.3L74.6,63H74l0.3-2.4H74.9z M72.9,61.5c-0.1-0.4-0.3-0.5-0.6-0.5
		c-0.3,0-0.6,0.2-0.7,0.5H72.9z M71.6,62c0,0.2,0.1,0.3,0.2,0.4c0.1,0.1,0.3,0.2,0.5,0.2c0.3,0,0.5-0.1,0.6-0.3l0.4,0.2
		c-0.1,0.2-0.3,0.3-0.5,0.4C72.7,63,72.5,63,72.3,63c-0.4,0-0.7-0.1-0.9-0.3c-0.2-0.2-0.3-0.5-0.3-0.9c0-0.4,0.1-0.7,0.4-1
		c0.2-0.3,0.6-0.4,0.9-0.4c0.4,0,0.6,0.1,0.9,0.3c0.2,0.2,0.3,0.5,0.3,0.9l0,0.2H71.6z M69.7,61.7c0-0.2-0.1-0.4-0.2-0.5
		c-0.1-0.1-0.3-0.2-0.5-0.2c-0.2,0-0.4,0.1-0.6,0.2c-0.1,0.2-0.2,0.4-0.2,0.6c0,0.2,0.1,0.4,0.2,0.5c0.1,0.1,0.3,0.2,0.5,0.2
		c0.2,0,0.4-0.1,0.6-0.3C69.7,62.1,69.7,61.9,69.7,61.7 M70.7,58.7L70.1,63h-0.6l0-0.3c-0.1,0.1-0.3,0.2-0.4,0.2
		C69.1,63,69,63,68.9,63c-0.3,0-0.6-0.1-0.8-0.3c-0.2-0.2-0.3-0.5-0.3-0.9c0-0.4,0.1-0.7,0.4-0.9c0.2-0.2,0.5-0.4,0.9-0.4
		c0.2,0,0.3,0,0.5,0.1c0.1,0.1,0.3,0.2,0.4,0.3l0.3-2.2H70.7z M65.6,60.6l0,0.2c0.2-0.2,0.5-0.3,0.7-0.3c0.2,0,0.4,0.1,0.6,0.2
		c0.1,0.1,0.2,0.3,0.2,0.5c0,0.1,0,0.3,0,0.4L66.9,63h-0.6l0.2-1.4l0-0.1l0-0.1c0-0.2-0.1-0.3-0.4-0.3c-0.1,0-0.3,0-0.4,0.1
		c-0.1,0.1-0.1,0.2-0.2,0.3c0,0,0,0.1-0.1,0.2l0,0.3L65.3,63h-0.6l0.3-2.4H65.6z M63.7,61.5C63.6,61.2,63.4,61,63,61
		c-0.3,0-0.6,0.2-0.7,0.5H63.7z M62.3,62c0,0.2,0.1,0.3,0.2,0.4c0.1,0.1,0.3,0.2,0.5,0.2c0.3,0,0.5-0.1,0.6-0.3l0.4,0.2
		c-0.1,0.2-0.3,0.3-0.5,0.4C63.4,63,63.2,63,63,63c-0.4,0-0.7-0.1-0.9-0.3c-0.2-0.2-0.3-0.5-0.3-0.9c0-0.4,0.1-0.7,0.4-1
		c0.2-0.3,0.6-0.4,0.9-0.4c0.4,0,0.6,0.1,0.9,0.3c0.2,0.2,0.3,0.5,0.3,0.9l0,0.2H62.3z M60.7,61.7c0-0.2-0.1-0.4-0.2-0.5
		C60.4,61.1,60.2,61,60,61c-0.2,0-0.4,0.1-0.6,0.2c-0.2,0.2-0.2,0.4-0.2,0.6c0,0.2,0.1,0.4,0.2,0.5c0.1,0.1,0.3,0.2,0.5,0.2
		c0.2,0,0.4-0.1,0.5-0.2C60.6,62.2,60.7,62,60.7,61.7 M59.4,60.6l0,0.2c0.2-0.2,0.5-0.3,0.8-0.3c0.3,0,0.6,0.1,0.8,0.3
		c0.2,0.2,0.3,0.5,0.3,0.8c0,0.4-0.1,0.7-0.4,0.9C60.6,62.9,60.3,63,60,63c-0.2,0-0.3,0-0.5-0.1c-0.1-0.1-0.3-0.2-0.4-0.3l-0.2,1.7
		h-0.6l0.5-3.7H59.4z M57.4,61.5c-0.1-0.4-0.3-0.5-0.6-0.5c-0.3,0-0.6,0.2-0.7,0.5H57.4z M56.1,62c0,0.2,0.1,0.3,0.2,0.4
		c0.1,0.1,0.3,0.2,0.5,0.2c0.3,0,0.5-0.1,0.6-0.3l0.4,0.2c-0.1,0.2-0.3,0.3-0.5,0.4C57.2,63,57,63,56.7,63c-0.4,0-0.7-0.1-0.9-0.3
		c-0.2-0.2-0.3-0.5-0.3-0.9c0-0.4,0.1-0.7,0.4-1c0.2-0.3,0.6-0.4,0.9-0.4c0.4,0,0.6,0.1,0.9,0.3c0.2,0.2,0.3,0.5,0.3,0.9l0,0.2H56.1
		z M54.2,61.7c0-0.2-0.1-0.4-0.2-0.5c-0.1-0.1-0.3-0.2-0.5-0.2c-0.2,0-0.4,0.1-0.6,0.2c-0.1,0.2-0.2,0.4-0.2,0.6
		c0,0.2,0.1,0.4,0.2,0.5c0.1,0.1,0.3,0.2,0.5,0.2c0.2,0,0.4-0.1,0.6-0.3C54.1,62.1,54.2,61.9,54.2,61.7 M55.2,58.7L54.6,63H54l0-0.3
		c-0.1,0.1-0.3,0.2-0.4,0.2c-0.1,0-0.2,0.1-0.4,0.1c-0.3,0-0.6-0.1-0.8-0.3c-0.2-0.2-0.3-0.5-0.3-0.9c0-0.4,0.1-0.7,0.4-0.9
		c0.2-0.2,0.5-0.4,0.9-0.4c0.2,0,0.3,0,0.5,0.1c0.1,0.1,0.3,0.2,0.4,0.3l0.3-2.2H55.2z M50.1,60.6l0,0.2c0.2-0.2,0.5-0.3,0.7-0.3
		c0.2,0,0.4,0.1,0.6,0.2c0.1,0.1,0.2,0.3,0.2,0.5c0,0.1,0,0.3,0,0.4L51.3,63h-0.6l0.2-1.4l0-0.1l0-0.1c0-0.2-0.1-0.3-0.4-0.3
		c-0.1,0-0.3,0-0.4,0.1c-0.1,0.1-0.1,0.2-0.2,0.3c0,0,0,0.1-0.1,0.2l0,0.3L49.8,63h-0.6l0.3-2.4H50.1z M48.7,60.6L48.4,63h-0.6
		l0.3-2.4H48.7z M48.9,59.5c0,0.1,0,0.2-0.1,0.2c-0.1,0.1-0.1,0.1-0.2,0.1c-0.1,0-0.2,0-0.2-0.1c-0.1-0.1-0.1-0.1-0.1-0.2
		c0-0.1,0-0.2,0.1-0.2c0.1-0.1,0.1-0.1,0.2-0.1c0.1,0,0.2,0,0.2,0.1C48.8,59.3,48.9,59.4,48.9,59.5 M126.3,61.1l-0.2,1.9h-0.6
		l0.2-1.9h-0.3l0.1-0.5h0.3l0.1-1.1h0.6l-0.1,1.1h0.5l-0.1,0.5H126.3z"/>
</g>
</svg>
